<svg width="148" height="140" viewBox="0 0 148 140" fill="none" xmlns="http://www.w3.org/2000/svg">
<g clip-path="url(#clip0)" filter="url(#filter0_d)">
<path d="M126.909 16.7288H21.1198C11.6764 16.7288 4 24.4052 4 33.8486V106.151C4 115.595 11.6764 123.271 21.1198 123.271H126.88C136.324 123.271 144 115.595 144 106.151V33.8775C144.029 24.4341 136.353 16.7288 126.909 16.7288ZM136.208 106.151C136.208 111.279 132.036 115.45 126.909 115.45H21.1198C15.9926 115.45 11.8212 111.279 11.8212 106.151V33.8775C11.8212 28.7503 15.9926 24.579 21.1198 24.579H126.88C132.007 24.579 136.179 28.7503 136.179 33.8775V106.151H136.208Z" fill="white" fill-opacity="0.4"/>
<path d="M92.293 69.102L126.533 38.3965C128.126 36.9481 128.271 34.4858 126.822 32.8637C125.374 31.2704 122.912 31.1256 121.289 32.574L74.0724 74.9535L64.8608 66.7267C64.8318 66.6977 64.8028 66.6688 64.8028 66.6398C64.6 66.437 64.3973 66.2632 64.1655 66.0894L26.6816 32.545C25.0594 31.0966 22.5972 31.2415 21.1488 32.8637C19.7004 34.4858 19.8452 36.9481 21.4674 38.3965L56.1126 69.3627L21.6123 101.662C20.048 103.139 19.9611 105.601 21.4385 107.194C22.2206 108.005 23.2634 108.44 24.3062 108.44C25.2622 108.44 26.2181 108.092 26.9712 107.397L61.993 74.6348L71.4943 83.1223C72.2475 83.7886 73.1744 84.1072 74.1014 84.1072C75.0284 84.1072 75.9843 83.7596 76.7085 83.0933L86.4705 74.3451L121.289 107.426C122.043 108.15 123.028 108.498 123.983 108.498C125.026 108.498 126.04 108.092 126.822 107.281C128.3 105.717 128.242 103.226 126.677 101.748L92.293 69.102Z" fill="white" fill-opacity="0.4"/>
</g>
<defs>
<filter id="filter0_d" x="0" y="0" width="148" height="148" filterUnits="userSpaceOnUse" color-interpolation-filters="sRGB">
<feFlood flood-opacity="0" result="BackgroundImageFix"/>
<feColorMatrix in="SourceAlpha" type="matrix" values="0 0 0 0 0 0 0 0 0 0 0 0 0 0 0 0 0 0 127 0"/>
<feOffset dy="4"/>
<feGaussianBlur stdDeviation="2"/>
<feColorMatrix type="matrix" values="0 0 0 0 0 0 0 0 0 0 0 0 0 0 0 0 0 0 0.25 0"/>
<feBlend mode="normal" in2="BackgroundImageFix" result="effect1_dropShadow"/>
<feBlend mode="normal" in="SourceGraphic" in2="effect1_dropShadow" result="shape"/>
</filter>
<clipPath id="clip0">
<rect width="140" height="140" fill="white" transform="translate(4)"/>
</clipPath>
</defs>
</svg>
